<svg width="156" height="31" viewBox="0 0 156 31" fill="none" xmlns="http://www.w3.org/2000/svg">
<g clip-path="url(#clip0_1_35)">
<path d="M15 0.16478C6.72938 0.16478 0 6.89416 0 15.1648C0 23.4354 6.72938 30.1648 15 30.1648C23.2706 30.1648 30 23.4354 30 15.1648C30 6.89416 23.2706 0.16478 15 0.16478ZM20.6062 7.68353C22.6744 7.68353 24.3562 9.36541 24.3562 11.4335C24.3562 11.951 23.9362 12.371 23.4187 12.371C22.9012 12.371 22.4812 11.951 22.4812 11.4335C22.4812 10.4004 21.6412 9.55853 20.6062 9.55853C19.5712 9.55853 18.7312 10.4004 18.7312 11.4335C18.7312 11.951 18.3112 12.371 17.7937 12.371C17.2762 12.371 16.8562 11.951 16.8562 11.4335C16.8562 9.36541 18.5381 7.68353 20.6062 7.68353ZM9.35625 7.68353C11.4244 7.68353 13.1062 9.36541 13.1062 11.4335C13.1062 11.951 12.6862 12.371 12.1687 12.371C11.6512 12.371 11.2312 11.951 11.2312 11.4335C11.2312 10.4004 10.3894 9.55853 9.35625 9.55853C8.32312 9.55853 7.48125 10.4004 7.48125 11.4335C7.48125 11.951 7.06125 12.371 6.54375 12.371C6.02625 12.371 5.60625 11.951 5.60625 11.4335C5.60625 9.36541 7.28812 7.68353 9.35625 7.68353ZM14.9812 26.4335C9.96562 26.4335 5.51625 23.0679 4.16062 18.251C4.08 17.9679 4.13625 17.666 4.31438 17.4317C4.49063 17.1973 4.76813 17.0585 5.0625 17.0585H24.9C25.1925 17.0585 25.47 17.1954 25.6463 17.4298C25.8225 17.6642 25.8806 17.966 25.8019 18.251C24.4444 23.0679 19.995 26.4335 14.9812 26.4335Z" fill="white"/>
</g>
<path d="M56.632 18.8777C56.7173 19.0697 56.76 19.2404 56.76 19.3897C56.76 19.6884 56.6373 19.9444 56.392 20.1577C56.1573 20.3604 55.8853 20.4617 55.576 20.4617C55.3733 20.4617 55.1813 20.4084 55 20.3017C54.8187 20.1844 54.68 20.0137 54.584 19.7897L53.736 17.9017H48.312L47.464 19.7897C47.368 20.0137 47.2293 20.1844 47.048 20.3017C46.8773 20.4084 46.6853 20.4617 46.472 20.4617C46.1627 20.4617 45.8853 20.3604 45.64 20.1577C45.3947 19.9444 45.272 19.6884 45.272 19.3897C45.272 19.2404 45.3147 19.0697 45.4 18.8777L49.72 9.80572C49.8373 9.54972 50.0133 9.35772 50.248 9.22972C50.4827 9.09105 50.7333 9.02172 51 9.02172C51.2773 9.02172 51.5333 9.09105 51.768 9.22972C52.0027 9.36839 52.184 9.56039 52.312 9.80572L56.632 18.8777ZM49.16 16.0137H52.888L51.032 11.8537L49.16 16.0137ZM59.3036 20.3977C58.9303 20.3977 58.6423 20.2964 58.4396 20.0937C58.237 19.8911 58.1356 19.6031 58.1356 19.2297V10.2857C58.1356 9.91239 58.237 9.62439 58.4396 9.42172C58.6423 9.21905 58.9303 9.11772 59.3036 9.11772H62.5196C63.7463 9.11772 64.8023 9.34172 65.6876 9.78972C66.573 10.2377 67.2503 10.8831 67.7196 11.7257C68.189 12.5684 68.4236 13.5764 68.4236 14.7497C68.4236 15.9231 68.189 16.9364 67.7196 17.7897C67.261 18.6324 66.589 19.2777 65.7036 19.7257C64.8183 20.1737 63.757 20.3977 62.5196 20.3977H59.3036ZM62.3436 18.3817C64.7436 18.3817 65.9436 17.1711 65.9436 14.7497C65.9436 12.3391 64.7436 11.1337 62.3436 11.1337H60.6316V18.3817H62.3436ZM80.3548 9.03772C80.7068 9.03772 80.9894 9.15505 81.2028 9.38972C81.4268 9.61372 81.5388 9.90705 81.5388 10.2697V19.3577C81.5388 19.7097 81.4374 19.9871 81.2348 20.1897C81.0321 20.3924 80.7654 20.4937 80.4348 20.4937C80.1148 20.4937 79.8534 20.3924 79.6508 20.1897C79.4481 19.9871 79.3468 19.7097 79.3468 19.3577V13.7097L77.0748 17.9817C76.9254 18.2591 76.7601 18.4617 76.5788 18.5897C76.4081 18.7177 76.2001 18.7817 75.9548 18.7817C75.7201 18.7817 75.5121 18.7177 75.3308 18.5897C75.1494 18.4617 74.9841 18.2591 74.8348 17.9817L72.5628 13.7897V19.3577C72.5628 19.6991 72.4614 19.9764 72.2588 20.1897C72.0561 20.3924 71.7894 20.4937 71.4588 20.4937C71.1388 20.4937 70.8774 20.3924 70.6748 20.1897C70.4721 19.9871 70.3708 19.7097 70.3708 19.3577V10.2697C70.3708 9.90705 70.4774 9.61372 70.6908 9.38972C70.9148 9.15505 71.2028 9.03772 71.5548 9.03772C72.0668 9.03772 72.4561 9.30972 72.7228 9.85372L75.9708 16.0137L79.2028 9.85372C79.4908 9.30972 79.8748 9.03772 80.3548 9.03772ZM85.0555 20.4937C84.6715 20.4937 84.3675 20.3817 84.1435 20.1577C83.9195 19.9337 83.8075 19.6297 83.8075 19.2457V10.2697C83.8075 9.89639 83.9195 9.59772 84.1435 9.37372C84.3675 9.14972 84.6715 9.03772 85.0555 9.03772C85.4395 9.03772 85.7435 9.14972 85.9675 9.37372C86.1915 9.59772 86.3035 9.89639 86.3035 10.2697V19.2457C86.3035 19.6297 86.1915 19.9337 85.9675 20.1577C85.7435 20.3817 85.4395 20.4937 85.0555 20.4937ZM97.1499 9.03772C97.5019 9.03772 97.7845 9.15505 97.9979 9.38972C98.2219 9.61372 98.3339 9.90705 98.3339 10.2697V19.2457C98.3339 19.6191 98.2219 19.9231 97.9979 20.1577C97.7845 20.3817 97.5019 20.4937 97.1499 20.4937C96.7659 20.4937 96.4565 20.3551 96.2219 20.0777L90.8619 13.2137V19.2457C90.8619 19.6191 90.7552 19.9231 90.5419 20.1577C90.3392 20.3817 90.0619 20.4937 89.7099 20.4937C89.3579 20.4937 89.0752 20.3817 88.8619 20.1577C88.6485 19.9231 88.5419 19.6191 88.5419 19.2457V10.2697C88.5419 9.90705 88.6485 9.61372 88.8619 9.38972C89.0859 9.15505 89.3739 9.03772 89.7259 9.03772C90.1205 9.03772 90.4245 9.17639 90.6379 9.45372L95.9979 16.2697V10.2697C95.9979 9.90705 96.1045 9.61372 96.3179 9.38972C96.5312 9.15505 96.8085 9.03772 97.1499 9.03772ZM106.29 20.4937C105.906 20.4937 105.602 20.3817 105.378 20.1577C105.154 19.9337 105.042 19.6297 105.042 19.2457V10.2857C105.042 9.91239 105.143 9.62439 105.346 9.42172C105.549 9.21905 105.837 9.11772 106.21 9.11772H110.226C111.453 9.11772 112.407 9.42705 113.09 10.0457C113.773 10.6644 114.114 11.5284 114.114 12.6377C114.114 13.7471 113.773 14.6111 113.09 15.2297C112.407 15.8484 111.453 16.1577 110.226 16.1577H107.538V19.2457C107.538 19.6297 107.426 19.9337 107.202 20.1577C106.978 20.3817 106.674 20.4937 106.29 20.4937ZM109.906 14.2697C111.154 14.2697 111.778 13.7311 111.778 12.6537C111.778 11.5657 111.154 11.0217 109.906 11.0217H107.538V14.2697H109.906ZM125.038 18.8777C125.124 19.0697 125.166 19.2404 125.166 19.3897C125.166 19.6884 125.044 19.9444 124.798 20.1577C124.564 20.3604 124.292 20.4617 123.982 20.4617C123.78 20.4617 123.588 20.4084 123.406 20.3017C123.225 20.1844 123.086 20.0137 122.99 19.7897L122.142 17.9017H116.718L115.87 19.7897C115.774 20.0137 115.636 20.1844 115.454 20.3017C115.284 20.4084 115.092 20.4617 114.878 20.4617C114.569 20.4617 114.292 20.3604 114.046 20.1577C113.801 19.9444 113.678 19.6884 113.678 19.3897C113.678 19.2404 113.721 19.0697 113.806 18.8777L118.126 9.80572C118.244 9.54972 118.42 9.35772 118.654 9.22972C118.889 9.09105 119.14 9.02172 119.406 9.02172C119.684 9.02172 119.94 9.09105 120.174 9.22972C120.409 9.36839 120.59 9.56039 120.718 9.80572L125.038 18.8777ZM117.566 16.0137H121.294L119.438 11.8537L117.566 16.0137ZM135.15 9.03772C135.502 9.03772 135.785 9.15505 135.998 9.38972C136.222 9.61372 136.334 9.90705 136.334 10.2697V19.2457C136.334 19.6191 136.222 19.9231 135.998 20.1577C135.785 20.3817 135.502 20.4937 135.15 20.4937C134.766 20.4937 134.457 20.3551 134.222 20.0777L128.862 13.2137V19.2457C128.862 19.6191 128.755 19.9231 128.542 20.1577C128.339 20.3817 128.062 20.4937 127.71 20.4937C127.358 20.4937 127.075 20.3817 126.862 20.1577C126.649 19.9231 126.542 19.6191 126.542 19.2457V10.2697C126.542 9.90705 126.649 9.61372 126.862 9.38972C127.086 9.15505 127.374 9.03772 127.726 9.03772C128.121 9.03772 128.425 9.17639 128.638 9.45372L133.998 16.2697V10.2697C133.998 9.90705 134.105 9.61372 134.318 9.38972C134.531 9.15505 134.809 9.03772 135.15 9.03772ZM139.741 20.3977C139.368 20.3977 139.08 20.2964 138.877 20.0937C138.674 19.8911 138.573 19.6031 138.573 19.2297V10.2857C138.573 9.91239 138.674 9.62439 138.877 9.42172C139.08 9.21905 139.368 9.11772 139.741 9.11772H145.405C146.194 9.11772 146.589 9.43772 146.589 10.0777C146.589 10.7284 146.194 11.0537 145.405 11.0537H141.005V13.6937H145.085C145.874 13.6937 146.269 14.0191 146.269 14.6697C146.269 15.3097 145.874 15.6297 145.085 15.6297H141.005V18.4617H145.405C146.194 18.4617 146.589 18.7871 146.589 19.4377C146.589 20.0777 146.194 20.3977 145.405 20.3977H139.741ZM149.226 20.3977C148.852 20.3977 148.564 20.2964 148.362 20.0937C148.159 19.8911 148.058 19.6031 148.058 19.2297V10.2697C148.058 9.89639 148.17 9.59772 148.394 9.37372C148.618 9.14972 148.922 9.03772 149.306 9.03772C149.69 9.03772 149.994 9.14972 150.218 9.37372C150.442 9.59772 150.554 9.89639 150.554 10.2697V18.3657H154.65C155.428 18.3657 155.818 18.7071 155.818 19.3897C155.818 20.0617 155.428 20.3977 154.65 20.3977H149.226Z" fill="white"/>
<defs>
<clipPath id="clip0_1_35">
<rect width="30" height="30" fill="white" transform="translate(0 0.16478)"/>
</clipPath>
</defs>
</svg>
